<svg xmlns="http://www.w3.org/2000/svg" viewBox="0 0 17 17" fill="none"><path fill="currentColor" d="m4.293 14.043-.748.048.748-.048Zm8.414 0 .748.048-.748-.048ZM2.333 3.583a.75.75 0 1 0 0 1.5v-1.5Zm12.334 1.5a.75.75 0 0 0 0-1.5v1.5ZM7.75 7.667a.75.75 0 0 0-1.5 0h1.5Zm-1.5 3.666a.75.75 0 1 0 1.5 0h-1.5Zm4.5-3.666a.75.75 0 0 0-1.5 0h1.5Zm-1.5 3.666a.75.75 0 1 0 1.5 0h-1.5Zm1.106-6.813a.75.75 0 1 0 1.453-.374l-1.453.374Zm-6.69-.187-.748.049.627 9.71.748-.05.749-.047-.627-9.71-.748.048Zm1.292 10.334v.75h7.084v-1.5H4.958v.75Zm7.749-.624.748.048.627-9.71-.749-.048-.748-.048-.627 9.71.749.048Zm.626-9.71v-.75H3.667v1.5h9.666v-.75Zm-11 0v.75h1.334v-1.5H2.333v.75Zm11 0v.75h1.334v-1.5h-1.334v.75Zm-1.291 10.334v.75c.747 0 1.365-.58 1.413-1.326l-.748-.048-.748-.048a.083.083 0 0 1 .083-.078v.75Zm-7.749-.624-.748.048a1.417 1.417 0 0 0 1.413 1.326v-1.5c.044 0 .08.034.084.078l-.749.048ZM7 7.667h-.75v3.666h1.5V7.667H7Zm3 0h-.75v3.666h1.5V7.667H10ZM8.5 2.333v.75c.892 0 1.643.61 1.856 1.437l.727-.187.726-.187A3.418 3.418 0 0 0 8.5 1.583v.75Zm-2.583 2 .727.187A1.918 1.918 0 0 1 8.5 3.083v-1.5a3.418 3.418 0 0 0-3.309 2.563l.726.187Z"/></svg>